<svg xmlns="http://www.w3.org/2000/svg" viewBox="0 0 64 64">
  <ellipse cx="32" cy="50" rx="21" ry="5" fill="rgba(36,22,18,.14)"/>
  <circle cx="32" cy="32" r="24" fill="#fff8ec" stroke="#c97816" stroke-width="3"/>
  <circle cx="32" cy="32" r="18" fill="#fff1d1" stroke="#e4c999" stroke-width="1.5"/>
  <path d="M19 20c13-8 26-5 34 6L30 49c-7-6-11-16-11-29Z" fill="#f4b642" stroke="#9b4f0f" stroke-linejoin="round" stroke-width="2"/>
  <path d="M19 20c13-8 26-5 34 6-4 4-8 6-13 7-4-7-11-10-21-13Z" fill="#c97816" stroke="#9b4f0f" stroke-linejoin="round" stroke-width="2"/>
  <circle cx="31" cy="30" r="3.4" fill="#b8332a" stroke="#7f1d17" stroke-width=".8"/>
  <circle cx="39" cy="38" r="3" fill="#b8332a" stroke="#7f1d17" stroke-width=".8"/>
  <circle cx="27" cy="41" r="2.6" fill="#b8332a" stroke="#7f1d17" stroke-width=".8"/>
  <path d="M35 24c-2 6-2 12 2 17" fill="none" stroke="#fff6ba" stroke-linecap="round" stroke-width="2"/>
  <path d="M25 25c4 4 7 8 8 15" fill="none" stroke="#fff6ba" stroke-linecap="round" stroke-width="2"/>
</svg>
